<svg xmlns="http://www.w3.org/2000/svg" viewBox="0 0 100 120" width="100" height="120">
  <defs>
    <linearGradient id="serverGradient" x1="0%" y1="0%" x2="100%" y2="100%">
      <stop offset="0%" style="stop-color:#3B82F6"/>
      <stop offset="100%" style="stop-color:#1D4ED8"/>
    </linearGradient>
    <linearGradient id="barGradient1" x1="0%" y1="100%" x2="0%" y2="0%">
      <stop offset="0%" style="stop-color:#10B981"/>
      <stop offset="100%" style="stop-color:#34D399"/>
    </linearGradient>
    <linearGradient id="barGradient2" x1="0%" y1="100%" x2="0%" y2="0%">
      <stop offset="0%" style="stop-color:#F59E0B"/>
      <stop offset="100%" style="stop-color:#FBBF24"/>
    </linearGradient>
    <linearGradient id="barGradient3" x1="0%" y1="100%" x2="0%" y2="0%">
      <stop offset="0%" style="stop-color:#EF4444"/>
      <stop offset="100%" style="stop-color:#F87171"/>
    </linearGradient>
  </defs>

  <!-- Server rack base -->
  <rect x="15" y="20" width="70" height="70" rx="6" fill="url(#serverGradient)"/>

  <!-- Server slots (node lines) -->
  <rect x="22" y="28" width="56" height="8" rx="2" fill="#1E3A5F" opacity="0.5"/>
  <rect x="22" y="40" width="56" height="8" rx="2" fill="#1E3A5F" opacity="0.5"/>
  <rect x="22" y="52" width="56" height="8" rx="2" fill="#1E3A5F" opacity="0.5"/>

  <!-- Usage bars (bar chart overlay) -->
  <rect x="28" y="45" width="10" height="35" rx="2" fill="url(#barGradient1)"/>
  <rect x="45" y="55" width="10" height="25" rx="2" fill="url(#barGradient2)"/>
  <rect x="62" y="38" width="10" height="42" rx="2" fill="url(#barGradient3)"/>

  <!-- Status LEDs -->
  <circle cx="26" cy="32" r="2" fill="#34D399"/>
  <circle cx="26" cy="44" r="2" fill="#34D399"/>
  <circle cx="26" cy="56" r="2" fill="#FBBF24"/>

  <!-- Text "slurm-usage" -->
  <text x="50" y="110" text-anchor="middle" font-family="system-ui, -apple-system, sans-serif" font-size="11" font-weight="600" fill="#3B82F6">slurm-usage</text>
</svg>
