<svg xmlns="http://www.w3.org/2000/svg" viewBox="0 0 100 100" width="100" height="100">
  <defs>
    <linearGradient id="serverGradient" x1="0%" y1="0%" x2="100%" y2="100%">
      <stop offset="0%" style="stop-color:#3B82F6"/>
      <stop offset="100%" style="stop-color:#1D4ED8"/>
    </linearGradient>
    <linearGradient id="barGradient1" x1="0%" y1="100%" x2="0%" y2="0%">
      <stop offset="0%" style="stop-color:#10B981"/>
      <stop offset="100%" style="stop-color:#34D399"/>
    </linearGradient>
    <linearGradient id="barGradient2" x1="0%" y1="100%" x2="0%" y2="0%">
      <stop offset="0%" style="stop-color:#F59E0B"/>
      <stop offset="100%" style="stop-color:#FBBF24"/>
    </linearGradient>
    <linearGradient id="barGradient3" x1="0%" y1="100%" x2="0%" y2="0%">
      <stop offset="0%" style="stop-color:#EF4444"/>
      <stop offset="100%" style="stop-color:#F87171"/>
    </linearGradient>
  </defs>

  <!-- Server rack base -->
  <rect x="10" y="10" width="80" height="80" rx="8" fill="url(#serverGradient)"/>

  <!-- Server slots (node lines) -->
  <rect x="18" y="18" width="64" height="10" rx="3" fill="#1E3A5F" opacity="0.5"/>
  <rect x="18" y="32" width="64" height="10" rx="3" fill="#1E3A5F" opacity="0.5"/>
  <rect x="18" y="46" width="64" height="10" rx="3" fill="#1E3A5F" opacity="0.5"/>

  <!-- Usage bars (bar chart overlay) -->
  <rect x="25" y="40" width="14" height="42" rx="3" fill="url(#barGradient1)"/>
  <rect x="43" y="52" width="14" height="30" rx="3" fill="url(#barGradient2)"/>
  <rect x="61" y="32" width="14" height="50" rx="3" fill="url(#barGradient3)"/>

  <!-- Status LEDs -->
  <circle cx="24" cy="23" r="3" fill="#34D399"/>
  <circle cx="24" cy="37" r="3" fill="#34D399"/>
  <circle cx="24" cy="51" r="3" fill="#FBBF24"/>
</svg>
